<svg width="44" height="45" viewBox="0 0 44 45" fill="none" xmlns="http://www.w3.org/2000/svg">
<path d="M7.72917 8.4771C6.625 8.4771 5.67726 8.08144 4.88594 7.29012C4.09462 6.49881 3.69896 5.55106 3.69896 4.4469C3.69896 3.34273 4.09462 2.39499 4.88594 1.60367C5.67726 0.812347 6.625 0.416687 7.72917 0.416687C8.83333 0.416687 9.78108 0.812347 10.5724 1.60367C11.3637 2.39499 11.7594 3.34273 11.7594 4.4469C11.7594 5.55106 11.3637 6.49881 10.5724 7.29012C9.78108 8.08144 8.83333 8.4771 7.72917 8.4771ZM4.41667 44.5834V29.125H0V15.1573C0 14.2372 0.322049 13.4551 0.966146 12.811C1.61024 12.1669 2.39236 11.8448 3.3125 11.8448H12.1458C13.066 11.8448 13.8481 12.1669 14.4922 12.811C15.1363 13.4551 15.4583 14.2372 15.4583 15.1573V21.9479C13.5812 23.1625 12.0446 24.8188 10.8484 26.9167C9.65226 29.0146 9.05417 31.2966 9.05417 33.7625C9.05417 35.2347 9.2566 36.5873 9.66146 37.8203C10.0663 39.0533 10.5264 40.0931 11.0417 40.9396V44.5834H4.41667ZM23.1875 44.5834C20.2062 44.5834 17.6575 43.5344 15.5411 41.4365C13.4248 39.3386 12.3667 36.7806 12.3667 33.7625C12.3667 31.5542 13.0568 29.4287 14.437 27.386C15.8172 25.3433 17.8139 23.9906 20.4271 23.3281V26.9719C18.9181 27.4872 17.7495 28.4073 16.9214 29.7323C16.0932 31.0573 15.6792 32.4007 15.6792 33.7625C15.6792 35.8604 16.4061 37.6363 17.8599 39.0901C19.3137 40.5439 21.0896 41.2709 23.1875 41.2709C25.3958 41.2709 27.2453 40.4059 28.7359 38.6761C30.2266 36.9462 30.7694 34.8667 30.3646 32.4375H33.6771C34.1556 35.566 33.3182 38.3724 31.1651 40.8568C29.012 43.3412 26.3528 44.5834 23.1875 44.5834ZM40.5229 39.8354L34.3948 30.7813H22.0833V14.2188H25.3958V27.4688H36.2719L43.2833 38.0136L40.5229 39.8354Z" fill="#1270B0"/>
</svg>
