<svg width="56" height="56" viewBox="0 0 56 56" fill="none" xmlns="http://www.w3.org/2000/svg">
<mask id="mask0_335_2520" style="mask-type:alpha" maskUnits="userSpaceOnUse" x="0" y="0" width="56" height="56">
<rect width="56" height="56" fill="#D9D9D9"/>
</mask>
<g mask="url(#mask0_335_2520)">
<path d="M12.95 41.125C15.4 39.4138 17.8306 38.1013 20.2417 37.1875C22.6528 36.2736 25.2389 35.8166 28 35.8166C30.7611 35.8166 33.357 36.2736 35.7875 37.1875C38.2181 38.1013 40.6584 39.4138 43.1084 41.125C44.8195 39.025 46.0347 36.9055 46.7542 34.7666C47.4736 32.6277 47.8334 30.3722 47.8334 28C47.8334 22.3611 45.9375 17.6458 42.1459 13.8541C38.3542 10.0625 33.6389 8.16663 28 8.16663C22.3611 8.16663 17.6459 10.0625 13.8542 13.8541C10.0625 17.6458 8.16669 22.3611 8.16669 28C8.16669 30.3722 8.53613 32.6277 9.27502 34.7666C10.0139 36.9055 11.2389 39.025 12.95 41.125ZM27.9889 29.75C25.7408 29.75 23.8486 28.9782 22.3125 27.4347C20.7764 25.8916 20.0084 23.9958 20.0084 21.7472C20.0084 19.499 20.7801 17.6069 22.3236 16.0708C23.8667 14.5347 25.7626 13.7666 28.0111 13.7666C30.2593 13.7666 32.1514 14.5384 33.6875 16.0819C35.2236 17.625 35.9917 19.5208 35.9917 21.7694C35.9917 24.0175 35.2199 25.9097 33.6764 27.4458C32.1333 28.9819 30.2375 29.75 27.9889 29.75ZM28.0274 51.3333C24.8203 51.3333 21.7972 50.7208 18.9584 49.4958C16.1195 48.2708 13.6403 46.5986 11.5209 44.4791C9.40141 42.3597 7.72919 39.885 6.50419 37.055C5.27919 34.2255 4.66669 31.2019 4.66669 27.9842C4.66669 24.7669 5.27919 21.7486 6.50419 18.9291C7.72919 16.1097 9.40141 13.6402 11.5209 11.5208C13.6403 9.40135 16.115 7.72913 18.9449 6.50413C21.7745 5.27913 24.7981 4.66663 28.0158 4.66663C31.233 4.66663 34.2514 5.27913 37.0709 6.50413C39.8903 7.72913 42.3597 9.40135 44.4792 11.5208C46.5986 13.6402 48.2709 16.1103 49.4959 18.9309C50.7209 21.7515 51.3334 24.7654 51.3334 27.9725C51.3334 31.1797 50.7209 34.2027 49.4959 37.0416C48.2709 39.8805 46.5986 42.3597 44.4792 44.4791C42.3597 46.5986 39.8897 48.2708 37.0691 49.4958C34.2485 50.7208 31.2346 51.3333 28.0274 51.3333ZM28 47.8333C30.1389 47.8333 32.2292 47.5222 34.2709 46.9C36.3125 46.2777 38.325 45.1889 40.3084 43.6333C38.325 42.2333 36.3028 41.1638 34.2417 40.425C32.1806 39.6861 30.1 39.3166 28 39.3166C25.9 39.3166 23.8195 39.6861 21.7584 40.425C19.6972 41.1638 17.675 42.2333 15.6917 43.6333C17.675 45.1889 19.6875 46.2777 21.7292 46.9C23.7709 47.5222 25.8611 47.8333 28 47.8333ZM28 26.25C29.3222 26.25 30.4014 25.8319 31.2375 24.9958C32.0736 24.1597 32.4917 23.0805 32.4917 21.7583C32.4917 20.4361 32.0736 19.3569 31.2375 18.5208C30.4014 17.6847 29.3222 17.2666 28 17.2666C26.6778 17.2666 25.5986 17.6847 24.7625 18.5208C23.9264 19.3569 23.5084 20.4361 23.5084 21.7583C23.5084 23.0805 23.9264 24.1597 24.7625 24.9958C25.5986 25.8319 26.6778 26.25 28 26.25Z" fill="#3D3D43"/>
</g>
</svg>
