<svg width="112" height="112" viewBox="0 0 112 112" fill="none" xmlns="http://www.w3.org/2000/svg">
<mask id="mask0_1287_7172" style="mask-type:alpha" maskUnits="userSpaceOnUse" x="0" y="0" width="112" height="112">
<rect width="112" height="112" fill="#D9D9D9"/>
</mask>
<g mask="url(#mask0_1287_7172)">
<path d="M53.6667 77H58.3333V58.3333H77V53.6667H58.3333V35H53.6667V53.6667H35V58.3333H53.6667V77ZM56.0152 98C50.2075 98 44.7471 96.8979 39.634 94.6937C34.5217 92.4894 30.0743 89.4981 26.292 85.7197C22.5097 81.9412 19.5156 77.4978 17.3098 72.3893C15.1033 67.2817 14 61.8236 14 56.0152C14 50.2075 15.1021 44.7471 17.3063 39.634C19.5106 34.5217 22.5019 30.0743 26.2803 26.292C30.0588 22.5097 34.5022 19.5156 39.6107 17.3098C44.7183 15.1033 50.1764 14 55.9848 14C61.7925 14 67.2529 15.1021 72.366 17.3063C77.4783 19.5106 81.9257 22.5019 85.708 26.2803C89.4903 30.0588 92.4844 34.5022 94.6902 39.6107C96.8967 44.7183 98 50.1764 98 55.9848C98 61.7925 96.8979 67.2529 94.6937 72.366C92.4894 77.4783 89.4981 81.9257 85.7197 85.708C81.9412 89.4903 77.4978 92.4844 72.3893 94.6902C67.2817 96.8967 61.8236 98 56.0152 98ZM56 93.3333C66.4222 93.3333 75.25 89.7167 82.4833 82.4833C89.7167 75.25 93.3333 66.4222 93.3333 56C93.3333 45.5778 89.7167 36.75 82.4833 29.5167C75.25 22.2833 66.4222 18.6667 56 18.6667C45.5778 18.6667 36.75 22.2833 29.5167 29.5167C22.2833 36.75 18.6667 45.5778 18.6667 56C18.6667 66.4222 22.2833 75.25 29.5167 82.4833C36.75 89.7167 45.5778 93.3333 56 93.3333Z" fill="#3D3D43"/>
</g>
</svg>
