<svg width="19" height="18" viewBox="0 0 19 18" fill="none" xmlns="http://www.w3.org/2000/svg">
<path d="M3.666 16.7509C3.5769 17.2468 4.07727 17.6344 4.51823 17.4132L9.53336 14.8934L14.5473 17.4132C14.9883 17.6344 15.4887 17.2468 15.3996 16.752L14.4514 11.4688L18.4749 7.72038C18.8519 7.36966 18.6577 6.72853 18.1527 6.65928L12.5573 5.88189L10.0623 1.04886C10.0148 0.950893 9.93977 0.868121 9.84604 0.810161C9.75231 0.752202 9.64369 0.721436 9.53279 0.721436C9.42188 0.721436 9.31326 0.752202 9.21953 0.810161C9.1258 0.868121 9.05081 0.950893 9.00328 1.04886L6.50829 5.883L0.912827 6.6604C0.40903 6.72965 0.21368 7.37077 0.589529 7.7215L4.61419 11.47L3.666 16.7531V16.7509ZM9.26946 13.6603L5.05859 15.7758L5.85141 11.356C5.87049 11.2543 5.86347 11.1495 5.83098 11.0511C5.79848 10.9526 5.74152 10.8636 5.6652 10.792L2.34539 7.69804L6.97439 7.05468C7.07008 7.04008 7.1608 7.00324 7.23892 6.94727C7.31704 6.8913 7.38028 6.81782 7.42335 6.733L9.53107 2.64721L11.6411 6.733C11.6841 6.81782 11.7474 6.8913 11.8255 6.94727C11.9036 7.00324 11.9943 7.04008 12.09 7.05468L16.719 7.69692L13.3992 10.7909C13.3227 10.8626 13.2657 10.9518 13.2332 11.0505C13.2007 11.1491 13.1937 11.2541 13.213 11.356L14.0058 15.7758L9.79497 13.6603C9.71362 13.619 9.62331 13.5974 9.53164 13.5974C9.43998 13.5974 9.3508 13.619 9.26946 13.6603Z" fill="#FF6F00"/>
</svg>
