<svg width="40" height="41" viewBox="0 0 40 41" fill="none" xmlns="http://www.w3.org/2000/svg">
<path d="M37.2104 40.375L22.6906 25.8552L25.2302 23.3156L39.75 37.8354L37.2104 40.375ZM5.74167 37.8354C3.79097 35.7007 2.34635 33.3359 1.40781 30.7411C0.469271 28.1464 0 25.5056 0 22.8187C0 19.9479 0.533681 17.1507 1.60104 14.4271C2.6684 11.7035 4.28785 9.2559 6.45937 7.08437C8.6309 4.91285 11.0877 3.2934 13.8297 2.22604C16.5717 1.15868 19.3781 0.625 22.249 0.625C24.9358 0.625 27.5766 1.09427 30.1714 2.03281C32.7661 2.97135 35.1125 4.41597 37.2104 6.36667L5.74167 37.8354ZM5.90729 32.9219L9.71667 29.0573C9.12778 28.2476 8.53889 27.3734 7.95 26.4349C7.36111 25.4964 6.81823 24.5026 6.32135 23.4536C5.82448 22.4047 5.41042 21.3189 5.07917 20.1964C4.74792 19.0738 4.52708 17.9236 4.41667 16.7458C3.42292 19.4694 3.08247 22.2483 3.39531 25.0823C3.70816 27.9163 4.54549 30.5295 5.90729 32.9219ZM12.3667 26.5729L25.9479 12.8812C24.2549 11.5562 22.5342 10.5165 20.7859 9.76198C19.0377 9.00747 17.3722 8.51059 15.7896 8.27135C14.2069 8.03212 12.7991 8.03212 11.5661 8.27135C10.3332 8.51059 9.38542 8.96146 8.72292 9.62396C8.06042 10.2865 7.63715 11.2342 7.45312 12.4672C7.2691 13.7002 7.3151 15.0804 7.59115 16.6078C7.86719 18.1352 8.40087 19.7547 9.19219 21.4661C9.98351 23.1776 11.0417 24.8799 12.3667 26.5729ZM28.4323 10.3417L32.4073 6.53229C29.9781 4.98646 27.3373 4.08472 24.4849 3.82708C21.6325 3.56944 18.8444 3.97431 16.1208 5.04167C17.225 5.15208 18.32 5.37292 19.4057 5.70417C20.4915 6.03542 21.5589 6.43108 22.6078 6.89115C23.6568 7.35122 24.6689 7.87569 25.6443 8.46458C26.6196 9.05347 27.549 9.67917 28.4323 10.3417Z" fill="#1270B0"/>
</svg>
