<svg width="20" height="20" viewBox="0 0 18 12" fill="none" xmlns="http://www.w3.org/2000/svg">
<path d="M0.666656 11.8334V6.52092C0.666656 6.17369 0.736101 5.8473 0.87499 5.54175C1.01388 5.23619 1.22221 4.98619 1.49999 4.79175V2.37508C1.49999 1.75008 1.7118 1.22578 2.13541 0.802165C2.55902 0.378554 3.08332 0.166748 3.70832 0.166748H7.45832C7.76388 0.166748 8.0486 0.236192 8.31249 0.375081C8.57638 0.51397 8.80554 0.70147 8.99999 0.937581C9.19443 0.70147 9.42013 0.51397 9.67707 0.375081C9.93402 0.236192 10.2153 0.166748 10.5208 0.166748H14.2708C14.8958 0.166748 15.4236 0.378554 15.8542 0.802165C16.2847 1.22578 16.5 1.75008 16.5 2.37508V4.79175C16.7778 4.98619 16.9861 5.23619 17.125 5.54175C17.2639 5.8473 17.3333 6.17369 17.3333 6.52092V11.8334H16.0833V10.1667H1.91666V11.8334H0.666656ZM9.62499 4.43758H15.25V2.37508C15.25 2.0973 15.1562 1.86814 14.9687 1.68758C14.7812 1.50703 14.5486 1.41675 14.2708 1.41675H10.4583C10.2222 1.41675 10.0243 1.51397 9.86457 1.70841C9.70485 1.90286 9.62499 2.12508 9.62499 2.37508V4.43758ZM2.74999 4.43758H8.37499V2.37508C8.37499 2.12508 8.29513 1.90286 8.13541 1.70841C7.97568 1.51397 7.77777 1.41675 7.54166 1.41675H3.70832C3.44443 1.41675 3.21874 1.5105 3.03124 1.698C2.84374 1.8855 2.74999 2.11119 2.74999 2.37508V4.43758ZM1.91666 8.91675H16.0833V6.52092C16.0833 6.2848 16.0035 6.08689 15.8437 5.92717C15.684 5.76744 15.4861 5.68758 15.25 5.68758H2.74999C2.51388 5.68758 2.31596 5.76744 2.15624 5.92717C1.99652 6.08689 1.91666 6.2848 1.91666 6.52092V8.91675Z" fill="#196FFB"/>
</svg>
