<svg width="20" height="20" viewBox="0 0 18 12" fill="none" xmlns="http://www.w3.org/2000/svg">
<path d="M0.666687 11.8333V6.52082C0.666687 6.1736 0.736131 5.84721 0.87502 5.54166C1.01391 5.2361 1.22224 4.9861 1.50002 4.79166V2.37499C1.50002 1.74999 1.71183 1.22568 2.13544 0.802073C2.55905 0.378462 3.08335 0.166656 3.70835 0.166656H7.45835C7.76391 0.166656 8.04863 0.236101 8.31252 0.37499C8.57641 0.513879 8.80558 0.701379 9.00002 0.93749C9.19446 0.701379 9.42016 0.513879 9.6771 0.37499C9.93405 0.236101 10.2153 0.166656 10.5209 0.166656H14.2709C14.8959 0.166656 15.4236 0.378462 15.8542 0.802073C16.2847 1.22568 16.5 1.74999 16.5 2.37499V4.79166C16.7778 4.9861 16.9861 5.2361 17.125 5.54166C17.2639 5.84721 17.3334 6.1736 17.3334 6.52082V11.8333H16.0834V10.1667H1.91669V11.8333H0.666687ZM9.62502 4.43749H15.25V2.37499C15.25 2.09721 15.1563 1.86805 14.9688 1.68749C14.7813 1.50693 14.5486 1.41666 14.2709 1.41666H10.4584C10.2222 1.41666 10.0243 1.51388 9.8646 1.70832C9.70488 1.90277 9.62502 2.12499 9.62502 2.37499V4.43749ZM2.75002 4.43749H8.37502V2.37499C8.37502 2.12499 8.29516 1.90277 8.13544 1.70832C7.97572 1.51388 7.7778 1.41666 7.54169 1.41666H3.70835C3.44446 1.41666 3.21877 1.51041 3.03127 1.69791C2.84377 1.88541 2.75002 2.1111 2.75002 2.37499V4.43749ZM1.91669 8.91666H16.0834V6.52082C16.0834 6.28471 16.0035 6.0868 15.8438 5.92707C15.684 5.76735 15.4861 5.68749 15.25 5.68749H2.75002C2.51391 5.68749 2.31599 5.76735 2.15627 5.92707C1.99655 6.0868 1.91669 6.28471 1.91669 6.52082V8.91666Z" fill="#1E88EB"/>
</svg>
