<svg width="19" height="20" viewBox="0 0 19 20" fill="none" xmlns="http://www.w3.org/2000/svg">
<path d="M5.625 12C5.34167 12 5.10417 11.9042 4.9125 11.7125C4.72083 11.5208 4.625 11.2833 4.625 11C4.625 10.7167 4.72083 10.4792 4.9125 10.2875C5.10417 10.0958 5.34167 10 5.625 10C5.90833 10 6.14583 10.0958 6.3375 10.2875C6.52917 10.4792 6.625 10.7167 6.625 11C6.625 11.2833 6.52917 11.5208 6.3375 11.7125C6.14583 11.9042 5.90833 12 5.625 12ZM9.625 12C9.34167 12 9.10417 11.9042 8.9125 11.7125C8.72083 11.5208 8.625 11.2833 8.625 11C8.625 10.7167 8.72083 10.4792 8.9125 10.2875C9.10417 10.0958 9.34167 10 9.625 10C9.90833 10 10.1458 10.0958 10.3375 10.2875C10.5292 10.4792 10.625 10.7167 10.625 11C10.625 11.2833 10.5292 11.5208 10.3375 11.7125C10.1458 11.9042 9.90833 12 9.625 12ZM13.625 12C13.3417 12 13.1042 11.9042 12.9125 11.7125C12.7208 11.5208 12.625 11.2833 12.625 11C12.625 10.7167 12.7208 10.4792 12.9125 10.2875C13.1042 10.0958 13.3417 10 13.625 10C13.9083 10 14.1458 10.0958 14.3375 10.2875C14.5292 10.4792 14.625 10.7167 14.625 11C14.625 11.2833 14.5292 11.5208 14.3375 11.7125C14.1458 11.9042 13.9083 12 13.625 12ZM2.625 20C2.075 20 1.60417 19.8042 1.2125 19.4125C0.820833 19.0208 0.625 18.55 0.625 18V4C0.625 3.45 0.820833 2.97917 1.2125 2.5875C1.60417 2.19583 2.075 2 2.625 2H3.625V0H5.625V2H13.625V0H15.625V2H16.625C17.175 2 17.6458 2.19583 18.0375 2.5875C18.4292 2.97917 18.625 3.45 18.625 4V18C18.625 18.55 18.4292 19.0208 18.0375 19.4125C17.6458 19.8042 17.175 20 16.625 20H2.625ZM2.625 18H16.625V8H2.625V18ZM2.625 6H16.625V4H2.625V6Z" fill="#01255F"/>
</svg>
