<svg width="24" height="26" viewBox="0 0 24 26" fill="none" xmlns="http://www.w3.org/2000/svg">
<path d="M3.25 25.5C2.5625 25.5 1.97396 25.2552 1.48438 24.7656C0.994792 24.276 0.75 23.6875 0.75 23V5.5C0.75 4.8125 0.994792 4.22396 1.48438 3.73438C1.97396 3.24479 2.5625 3 3.25 3H4.5V0.5H7V3H17V0.5H19.5V3H20.75C21.4375 3 22.026 3.24479 22.5156 3.73438C23.0052 4.22396 23.25 4.8125 23.25 5.5V23C23.25 23.6875 23.0052 24.276 22.5156 24.7656C22.026 25.2552 21.4375 25.5 20.75 25.5H3.25ZM3.25 23H20.75V10.5H3.25V23ZM3.25 8H20.75V5.5H3.25V8ZM12 15.5C11.6458 15.5 11.349 15.3802 11.1094 15.1406C10.8698 14.901 10.75 14.6042 10.75 14.25C10.75 13.8958 10.8698 13.599 11.1094 13.3594C11.349 13.1198 11.6458 13 12 13C12.3542 13 12.651 13.1198 12.8906 13.3594C13.1302 13.599 13.25 13.8958 13.25 14.25C13.25 14.6042 13.1302 14.901 12.8906 15.1406C12.651 15.3802 12.3542 15.5 12 15.5ZM7 15.5C6.64583 15.5 6.34896 15.3802 6.10938 15.1406C5.86979 14.901 5.75 14.6042 5.75 14.25C5.75 13.8958 5.86979 13.599 6.10938 13.3594C6.34896 13.1198 6.64583 13 7 13C7.35417 13 7.65104 13.1198 7.89062 13.3594C8.13021 13.599 8.25 13.8958 8.25 14.25C8.25 14.6042 8.13021 14.901 7.89062 15.1406C7.65104 15.3802 7.35417 15.5 7 15.5ZM17 15.5C16.6458 15.5 16.349 15.3802 16.1094 15.1406C15.8698 14.901 15.75 14.6042 15.75 14.25C15.75 13.8958 15.8698 13.599 16.1094 13.3594C16.349 13.1198 16.6458 13 17 13C17.3542 13 17.651 13.1198 17.8906 13.3594C18.1302 13.599 18.25 13.8958 18.25 14.25C18.25 14.6042 18.1302 14.901 17.8906 15.1406C17.651 15.3802 17.3542 15.5 17 15.5ZM12 20.5C11.6458 20.5 11.349 20.3802 11.1094 20.1406C10.8698 19.901 10.75 19.6042 10.75 19.25C10.75 18.8958 10.8698 18.599 11.1094 18.3594C11.349 18.1198 11.6458 18 12 18C12.3542 18 12.651 18.1198 12.8906 18.3594C13.1302 18.599 13.25 18.8958 13.25 19.25C13.25 19.6042 13.1302 19.901 12.8906 20.1406C12.651 20.3802 12.3542 20.5 12 20.5ZM7 20.5C6.64583 20.5 6.34896 20.3802 6.10938 20.1406C5.86979 19.901 5.75 19.6042 5.75 19.25C5.75 18.8958 5.86979 18.599 6.10938 18.3594C6.34896 18.1198 6.64583 18 7 18C7.35417 18 7.65104 18.1198 7.89062 18.3594C8.13021 18.599 8.25 18.8958 8.25 19.25C8.25 19.6042 8.13021 19.901 7.89062 20.1406C7.65104 20.3802 7.35417 20.5 7 20.5ZM17 20.5C16.6458 20.5 16.349 20.3802 16.1094 20.1406C15.8698 19.901 15.75 19.6042 15.75 19.25C15.75 18.8958 15.8698 18.599 16.1094 18.3594C16.349 18.1198 16.6458 18 17 18C17.3542 18 17.651 18.1198 17.8906 18.3594C18.1302 18.599 18.25 18.8958 18.25 19.25C18.25 19.6042 18.1302 19.901 17.8906 20.1406C17.651 20.3802 17.3542 20.5 17 20.5Z" fill="#1270B0"/>
</svg>
