<svg width="18" height="16" viewBox="0 0 18 16" fill="none" xmlns="http://www.w3.org/2000/svg">
<path d="M3 14V15C3 15.2833 2.90417 15.5208 2.7125 15.7125C2.52083 15.9042 2.28333 16 2 16H1C0.716667 16 0.479167 15.9042 0.2875 15.7125C0.0958333 15.5208 0 15.2833 0 15V7L2.1 1C2.2 0.7 2.37917 0.458333 2.6375 0.275C2.89583 0.0916667 3.18333 0 3.5 0H14.5C14.8167 0 15.1042 0.0916667 15.3625 0.275C15.6208 0.458333 15.8 0.7 15.9 1L18 7V15C18 15.2833 17.9042 15.5208 17.7125 15.7125C17.5208 15.9042 17.2833 16 17 16H16C15.7167 16 15.4792 15.9042 15.2875 15.7125C15.0958 15.5208 15 15.2833 15 15V14H3ZM2.8 5H15.2L14.15 2H3.85L2.8 5ZM4.5 11C4.91667 11 5.27083 10.8542 5.5625 10.5625C5.85417 10.2708 6 9.91667 6 9.5C6 9.08333 5.85417 8.72917 5.5625 8.4375C5.27083 8.14583 4.91667 8 4.5 8C4.08333 8 3.72917 8.14583 3.4375 8.4375C3.14583 8.72917 3 9.08333 3 9.5C3 9.91667 3.14583 10.2708 3.4375 10.5625C3.72917 10.8542 4.08333 11 4.5 11ZM13.5 11C13.9167 11 14.2708 10.8542 14.5625 10.5625C14.8542 10.2708 15 9.91667 15 9.5C15 9.08333 14.8542 8.72917 14.5625 8.4375C14.2708 8.14583 13.9167 8 13.5 8C13.0833 8 12.7292 8.14583 12.4375 8.4375C12.1458 8.72917 12 9.08333 12 9.5C12 9.91667 12.1458 10.2708 12.4375 10.5625C12.7292 10.8542 13.0833 11 13.5 11ZM2 12H16V7H2V12Z" fill="#1270B0"/>
</svg>
