<?xml version="1.0" standalone="no"?>
<!DOCTYPE svg PUBLIC "-//W3C//DTD SVG 20010904//EN"
 "http://www.w3.org/TR/2001/REC-SVG-20010904/DTD/svg10.dtd">
<svg version="1.0" xmlns="http://www.w3.org/2000/svg"
 width="32.000000pt" height="32.000000pt" viewBox="0 0 32.000000 32.000000"
 preserveAspectRatio="xMidYMid meet">

<g transform="translate(0.000000,32.000000) scale(0.100000,-0.100000)"
fill="#000000" stroke="none">
<path d="M94 297 c-2 -7 -3 -65 -2 -128 l3 -114 85 0 85 0 0 125 0 125 -83 3
c-62 2 -84 -1 -88 -11z m156 -117 l0 -110 -70 0 -70 0 0 110 0 110 70 0 70 0
0 -110z"/>
<path d="M52 143 l3 -128 87 -3 c56 -2 88 1 88 8 0 6 -31 10 -80 10 l-80 0 0
120 c0 76 -4 120 -10 120 -7 0 -10 -45 -8 -127z"/>
</g>
</svg>
