<svg width="15" height="20" viewBox="0 0 15 20" fill="none" xmlns="http://www.w3.org/2000/svg">
<path d="M7.625 20C5.85833 20 4.41667 19.7208 3.3 19.1625C2.18333 18.6042 1.625 17.8833 1.625 17C1.625 16.6 1.74583 16.2292 1.9875 15.8875C2.22917 15.5458 2.56667 15.25 3 15L4.575 16.475C4.425 16.5417 4.2625 16.6167 4.0875 16.7C3.9125 16.7833 3.775 16.8833 3.675 17C3.89167 17.2667 4.39167 17.5 5.175 17.7C5.95833 17.9 6.775 18 7.625 18C8.475 18 9.29583 17.9 10.0875 17.7C10.8792 17.5 11.3833 17.2667 11.6 17C11.4833 16.8667 11.3333 16.7583 11.15 16.675C10.9667 16.5917 10.7917 16.5167 10.625 16.45L12.175 14.95C12.6417 15.2167 13 15.5208 13.25 15.8625C13.5 16.2042 13.625 16.5833 13.625 17C13.625 17.8833 13.0667 18.6042 11.95 19.1625C10.8333 19.7208 9.39167 20 7.625 20ZM7.65 14.5C9.3 13.2833 10.5417 12.0625 11.375 10.8375C12.2083 9.6125 12.625 8.38333 12.625 7.15C12.625 5.45 12.0833 4.16667 11 3.3C9.91667 2.43333 8.79167 2 7.625 2C6.45833 2 5.33333 2.43333 4.25 3.3C3.16667 4.16667 2.625 5.45 2.625 7.15C2.625 8.26667 3.03333 9.42917 3.85 10.6375C4.66667 11.8458 5.93333 13.1333 7.65 14.5ZM7.625 17C5.275 15.2667 3.52083 13.5833 2.3625 11.95C1.20417 10.3167 0.625 8.71667 0.625 7.15C0.625 5.96667 0.8375 4.92917 1.2625 4.0375C1.6875 3.14583 2.23333 2.4 2.9 1.8C3.56667 1.2 4.31667 0.75 5.15 0.45C5.98333 0.15 6.80833 0 7.625 0C8.44167 0 9.26667 0.15 10.1 0.45C10.9333 0.75 11.6833 1.2 12.35 1.8C13.0167 2.4 13.5625 3.14583 13.9875 4.0375C14.4125 4.92917 14.625 5.96667 14.625 7.15C14.625 8.71667 14.0458 10.3167 12.8875 11.95C11.7292 13.5833 9.975 15.2667 7.625 17ZM7.625 9C8.175 9 8.64583 8.80417 9.0375 8.4125C9.42917 8.02083 9.625 7.55 9.625 7C9.625 6.45 9.42917 5.97917 9.0375 5.5875C8.64583 5.19583 8.175 5 7.625 5C7.075 5 6.60417 5.19583 6.2125 5.5875C5.82083 5.97917 5.625 6.45 5.625 7C5.625 7.55 5.82083 8.02083 6.2125 8.4125C6.60417 8.80417 7.075 9 7.625 9Z" fill="#01255F"/>
</svg>
