<svg width="32" height="32" viewBox="0 0 32 32" fill="none" xmlns="http://www.w3.org/2000/svg">
<rect x="0.25" y="-0.25" width="31.5" height="31.5" rx="15.75" transform="matrix(1 0 0 -1 0 31.5)" stroke="#A1A1AA" stroke-width="0.5"/>
<mask id="mask0_216_2234" style="mask-type:alpha" maskUnits="userSpaceOnUse" x="6" y="6" width="20" height="20">
<rect x="6.5" y="6.5" width="19" height="19" fill="#D9D9D9" stroke="#C9C9CF"/>
</mask>
<g mask="url(#mask0_216_2234)">
<path d="M21.775 22.2658C21.775 22.5906 21.665 22.8639 21.4448 23.0842L21.775 22.2658ZM21.775 22.2658C21.775 21.9412 21.6647 21.6681 21.4439 21.4482M21.775 22.2658L21.4439 21.4482M21.4439 21.4482C21.2233 21.2284 20.9495 21.1186 20.6242 21.1186M21.4439 21.4482L20.6242 21.1186M20.6242 21.1186C20.299 21.1186 20.0254 21.2287 19.8052 21.4491L20.6242 21.1186ZM11.525 16.3179C11.525 16.6427 11.415 16.916 11.1948 17.1363L11.525 16.3179ZM11.525 16.3179C11.525 15.9933 11.4147 15.7202 11.1939 15.5003M11.525 16.3179L11.1939 15.5003M11.1939 15.5003C10.9733 15.2805 10.6995 15.1707 10.3742 15.1707M11.1939 15.5003L10.3742 15.1707M10.3742 15.1707C10.049 15.1707 9.77544 15.2808 9.55524 15.5012L10.3742 15.1707ZM18.3787 21.5643L18.3821 21.5469L18.3668 21.538L12.1376 17.8985L12.1204 17.8885L12.1068 17.903C11.8829 18.1411 11.6241 18.3275 11.3304 18.4624C11.0372 18.5971 10.7189 18.6646 10.375 18.6646C9.72182 18.6646 9.16743 18.4367 8.71037 17.9804C8.25331 17.5241 8.025 16.9707 8.025 16.3187C8.025 15.6667 8.25331 15.1133 8.71037 14.6571C9.16743 14.2008 9.72182 13.9729 10.375 13.9729C10.705 13.9729 11.0141 14.0367 11.3024 14.1642L11.3024 14.1642C11.5912 14.2917 11.8455 14.468 12.0654 14.6933L12.079 14.7071L12.0958 14.6975L18.3666 11.0996L18.383 11.0902L18.3784 11.0719C18.3508 10.9615 18.3266 10.8477 18.3059 10.7304C18.2853 10.6141 18.275 10.4942 18.275 10.3708C18.275 9.71884 18.5033 9.16545 18.9604 8.70919C19.4174 8.25293 19.9718 8.025 20.625 8.025C21.2782 8.025 21.8326 8.25293 22.2896 8.70919C22.7467 9.16545 22.975 9.71884 22.975 10.3708C22.975 11.0228 22.7467 11.5762 22.2896 12.0325C21.8326 12.4888 21.2782 12.7167 20.625 12.7167C20.3051 12.7167 20.0055 12.655 19.7259 12.5316C19.4457 12.408 19.1956 12.2431 18.9754 12.0371L18.9621 12.0247L18.9462 12.0335L12.6129 15.5482L12.594 15.5587L12.6016 15.5788C12.6426 15.688 12.6735 15.8077 12.6941 15.9379C12.7147 16.0685 12.725 16.192 12.725 16.3083C12.725 16.4252 12.7181 16.535 12.7044 16.6378C12.6906 16.7408 12.67 16.8473 12.6424 16.9574L12.6378 16.9758L12.6543 16.9852L18.9668 20.583L18.9828 20.5921L18.9962 20.5795C19.2163 20.3736 19.4645 20.2123 19.7408 20.0956C20.0167 19.9791 20.3125 19.9208 20.6283 19.9208C21.2863 19.9208 21.8412 20.1488 22.2948 20.6049C22.7484 21.0612 22.975 21.6146 22.975 22.2666C22.975 22.9186 22.7467 23.472 22.2896 23.9283C21.8326 24.3846 21.2782 24.6125 20.625 24.6125C19.9718 24.6125 19.4174 24.3846 18.9604 23.9283C18.5033 23.472 18.275 22.9186 18.275 22.2666C18.275 22.1586 18.3092 21.9253 18.3787 21.5643ZM20.6258 23.4147C20.951 23.4147 21.2246 23.3045 21.4448 23.0842L19.8052 21.4491C19.585 21.6694 19.475 21.9427 19.475 22.2675C19.475 22.5921 19.5853 22.8652 19.8061 23.085C20.0267 23.3048 20.3005 23.4147 20.6258 23.4147ZM10.3758 17.4668C10.701 17.4668 10.9746 17.3566 11.1948 17.1363L9.55523 15.5012C9.33504 15.7215 9.225 15.9948 9.225 16.3196C9.225 16.6442 9.33533 16.9173 9.55611 17.1371C9.77673 17.3569 10.0505 17.4668 10.3758 17.4668ZM20.6258 11.5189C20.951 11.5189 21.2246 11.4087 21.4448 11.1884L19.8052 9.55332C19.585 9.77356 19.475 10.0469 19.475 10.3717C19.475 10.6963 19.5853 10.9694 19.8061 11.1892C20.0267 11.409 20.3005 11.5189 20.6258 11.5189ZM21.4448 11.1884C21.665 10.9681 21.775 10.6948 21.775 10.37C21.775 10.0454 21.6647 9.77227 21.4439 9.55245C21.2233 9.33264 20.9495 9.22281 20.6242 9.22281C20.299 9.22281 20.0254 9.33293 19.8052 9.55332L21.4448 11.1884Z" fill="#3D3D43" stroke="#A1A1AA" stroke-width="0.05"/>
</g>
</svg>
