<svg width="17" height="16" viewBox="0 0 17 16" fill="none" xmlns="http://www.w3.org/2000/svg">
<path d="M12.813 10.9724C11.8536 11.9486 10.6395 13.1098 9.17065 14.4561C9.17063 14.4562 9.17062 14.4562 9.17061 14.4562L8.33333 15.2104L7.49606 14.4562C7.49604 14.4562 7.49602 14.4561 7.49599 14.4561C6.02719 13.1098 4.8131 11.9486 3.85366 10.9724C2.89416 9.99625 2.13029 9.1241 1.56176 8.35586C0.993168 7.58752 0.59529 6.89296 0.367217 6.27203C0.139021 5.65077 0.025 5.02284 0.025 4.38813C0.025 3.14449 0.442767 2.10712 1.27807 1.27425C2.11344 0.441438 3.1452 0.025 4.375 0.025C5.16254 0.025 5.89098 0.211146 6.56077 0.583367C7.23072 0.955675 7.81482 1.49369 8.31292 2.1981L8.33236 2.22559L8.35305 2.19903C8.93483 1.45234 9.55038 0.903817 10.1994 0.552302C10.8485 0.200757 11.5458 0.025 12.2917 0.025C13.5215 0.025 14.5532 0.441438 15.3886 1.27425C16.2239 2.10712 16.6417 3.14449 16.6417 4.38813C16.6417 5.02284 16.5276 5.65077 16.2994 6.27203C16.0714 6.89296 15.6735 7.58752 15.1049 8.35586C14.5364 9.1241 13.7725 9.99625 12.813 10.9724ZM8.31642 13.6196L8.33332 13.6351L8.35023 13.6196C9.75652 12.33 10.9139 11.224 11.8224 10.3016C12.7309 9.37918 13.453 8.57078 13.9885 7.87648C14.5241 7.18223 14.9005 6.56221 15.117 6.0166C15.3333 5.47141 15.4417 4.92951 15.4417 4.39105C15.4417 3.46822 15.1479 2.70853 14.5594 2.11409C13.9709 1.5196 13.2158 1.22281 12.2962 1.22281C11.5752 1.22281 10.9079 1.44297 10.2948 1.8826C9.68548 2.31954 9.1932 2.93184 8.81755 3.71843H7.82842C7.46648 2.94557 6.98112 2.33683 6.37201 1.8931C5.75895 1.4465 5.09155 1.22281 4.37042 1.22281C3.45088 1.22281 2.69576 1.5196 2.10723 2.11409C1.51874 2.70854 1.225 3.46949 1.225 4.39479C1.225 4.93449 1.33334 5.47955 1.54965 6.02983C1.76608 6.58042 2.14254 7.20639 2.67805 7.90758C3.21368 8.60893 3.94021 9.41741 4.85734 10.3329C5.77433 11.2483 6.92738 12.3439 8.31642 13.6196Z" fill="#3D3D43" stroke="#A1A1AA" stroke-width="0.05"/>
</svg>
