<svg width="20" height="14" viewBox="0 0 20 14" fill="none" xmlns="http://www.w3.org/2000/svg">
<path d="M0.83313 13.6668V11.3334C0.83313 10.8612 0.954658 10.4272 1.19771 10.0313C1.44077 9.63552 1.76369 9.33343 2.16646 9.1251C3.02757 8.69454 3.90257 8.37163 4.79146 8.15635C5.68035 7.94107 6.58313 7.83343 7.4998 7.83343C8.41646 7.83343 9.31924 7.94107 10.2081 8.15635C11.097 8.37163 11.972 8.69454 12.8331 9.1251C13.2359 9.33343 13.5588 9.63552 13.8019 10.0313C14.0449 10.4272 14.1665 10.8612 14.1665 11.3334V13.6668H0.83313ZM15.8331 13.6668V11.1668C15.8331 10.5557 15.663 9.96885 15.3227 9.40635C14.9824 8.84385 14.4998 8.36121 13.8748 7.95843C14.5831 8.04177 15.2498 8.18413 15.8748 8.38552C16.4998 8.58691 17.0831 8.83343 17.6248 9.1251C18.1248 9.40288 18.5067 9.71191 18.7706 10.0522C19.0345 10.3925 19.1665 10.764 19.1665 11.1668V13.6668H15.8331ZM7.4998 7.0001C6.58313 7.0001 5.79841 6.67371 5.14563 6.02093C4.49285 5.36816 4.16646 4.58343 4.16646 3.66677C4.16646 2.7501 4.49285 1.96538 5.14563 1.3126C5.79841 0.659824 6.58313 0.333435 7.4998 0.333435C8.41646 0.333435 9.20119 0.659824 9.85396 1.3126C10.5067 1.96538 10.8331 2.7501 10.8331 3.66677C10.8331 4.58343 10.5067 5.36816 9.85396 6.02093C9.20119 6.67371 8.41646 7.0001 7.4998 7.0001ZM15.8331 3.66677C15.8331 4.58343 15.5067 5.36816 14.854 6.02093C14.2012 6.67371 13.4165 7.0001 12.4998 7.0001C12.347 7.0001 12.1526 6.98274 11.9165 6.94802C11.6804 6.91329 11.4859 6.8751 11.3331 6.83343C11.7081 6.38899 11.9963 5.89593 12.1977 5.35427C12.3991 4.8126 12.4998 4.2501 12.4998 3.66677C12.4998 3.08343 12.3991 2.52093 12.1977 1.97927C11.9963 1.4376 11.7081 0.944546 11.3331 0.500102C11.5276 0.430657 11.722 0.385518 11.9165 0.364685C12.1109 0.343852 12.3054 0.333435 12.4998 0.333435C13.4165 0.333435 14.2012 0.659824 14.854 1.3126C15.5067 1.96538 15.8331 2.7501 15.8331 3.66677ZM2.4998 12.0001H12.4998V11.3334C12.4998 11.1807 12.4616 11.0418 12.3852 10.9168C12.3088 10.7918 12.2081 10.6945 12.0831 10.6251C11.3331 10.2501 10.5762 9.96885 9.8123 9.78135C9.04841 9.59385 8.27758 9.5001 7.4998 9.5001C6.72202 9.5001 5.95119 9.59385 5.1873 9.78135C4.42341 9.96885 3.66646 10.2501 2.91646 10.6251C2.79146 10.6945 2.69077 10.7918 2.61438 10.9168C2.53799 11.0418 2.4998 11.1807 2.4998 11.3334V12.0001ZM7.4998 5.33343C7.95813 5.33343 8.35049 5.17024 8.67688 4.84385C9.00327 4.51746 9.16646 4.1251 9.16646 3.66677C9.16646 3.20843 9.00327 2.81607 8.67688 2.48968C8.35049 2.1633 7.95813 2.0001 7.4998 2.0001C7.04146 2.0001 6.6491 2.1633 6.32271 2.48968C5.99633 2.81607 5.83313 3.20843 5.83313 3.66677C5.83313 4.1251 5.99633 4.51746 6.32271 4.84385C6.6491 5.17024 7.04146 5.33343 7.4998 5.33343Z" fill="#1E88EB"/>
</svg>
