<svg width="37" height="45" viewBox="0 0 37 45" fill="none" xmlns="http://www.w3.org/2000/svg">
<path d="M5.25004 44.5833C4.03546 44.5833 2.9957 44.1509 2.13077 43.2859C1.26584 42.421 0.833374 41.3813 0.833374 40.1667V4.83334C0.833374 3.61876 1.26584 2.579 2.13077 1.71407C2.9957 0.849137 4.03546 0.416672 5.25004 0.416672H31.75C32.9646 0.416672 34.0044 0.849137 34.8693 1.71407C35.7342 2.579 36.1667 3.61876 36.1667 4.83334V40.1667C36.1667 41.3813 35.7342 42.421 34.8693 43.2859C34.0044 44.1509 32.9646 44.5833 31.75 44.5833H5.25004ZM5.25004 40.1667H31.75V4.83334H5.25004V40.1667ZM18.5 37.9583C21.5549 37.9583 24.1589 36.8818 26.312 34.7287C28.4651 32.5755 29.5417 29.9715 29.5417 26.9167C29.5417 23.8618 28.4651 21.2578 26.312 19.1047C24.1589 16.9516 21.5549 15.875 18.5 15.875C15.4452 15.875 12.8412 16.9516 10.6881 19.1047C8.53494 21.2578 7.45837 23.8618 7.45837 26.9167C7.45837 29.9715 8.53494 32.5755 10.6881 34.7287C12.8412 36.8818 15.4452 37.9583 18.5 37.9583ZM18.5 34.2042C17.5431 34.2042 16.6138 34.0293 15.712 33.6797C14.8103 33.33 14.0098 32.8056 13.3105 32.1063L23.6896 21.7271C24.3889 22.4264 24.9134 23.2269 25.2631 24.1287C25.6127 25.0304 25.7875 25.9597 25.7875 26.9167C25.7875 28.941 25.079 30.6616 23.662 32.0787C22.245 33.4957 20.5243 34.2042 18.5 34.2042ZM9.66671 11.4583C10.2924 11.4583 10.8169 11.2467 11.2401 10.8234C11.6634 10.4002 11.875 9.8757 11.875 9.25001C11.875 8.62431 11.6634 8.09983 11.2401 7.67657C10.8169 7.2533 10.2924 7.04167 9.66671 7.04167C9.04101 7.04167 8.51653 7.2533 8.09327 7.67657C7.67001 8.09983 7.45837 8.62431 7.45837 9.25001C7.45837 9.8757 7.67001 10.4002 8.09327 10.8234C8.51653 11.2467 9.04101 11.4583 9.66671 11.4583ZM16.2917 11.4583C16.9174 11.4583 17.4419 11.2467 17.8651 10.8234C18.2884 10.4002 18.5 9.8757 18.5 9.25001C18.5 8.62431 18.2884 8.09983 17.8651 7.67657C17.4419 7.2533 16.9174 7.04167 16.2917 7.04167C15.666 7.04167 15.1415 7.2533 14.7183 7.67657C14.295 8.09983 14.0834 8.62431 14.0834 9.25001C14.0834 9.8757 14.295 10.4002 14.7183 10.8234C15.1415 11.2467 15.666 11.4583 16.2917 11.4583Z" fill="#1270B0"/>
</svg>
