<svg width="15" height="14" viewBox="0 0 15 14" fill="none" xmlns="http://www.w3.org/2000/svg">
<path d="M10.0333 13.75L4.97993 12.0625L1.39091 13.3999C1.15341 13.5083 0.924746 13.4948 0.704927 13.3594C0.484976 13.2239 0.375 13.0291 0.375 12.775V2.29994C0.375 2.13744 0.424479 1.99369 0.523438 1.86869C0.622396 1.74369 0.753219 1.64994 0.915906 1.58744L4.97993 0.25L10.0333 1.92494L13.6091 0.5875C13.8466 0.4875 14.0753 0.503125 14.2951 0.634375C14.515 0.765625 14.625 0.958313 14.625 1.21244V11.7751C14.625 11.9208 14.5755 12.0479 14.4766 12.1562C14.3776 12.2646 14.2511 12.3459 14.0972 12.4L10.0333 13.75ZM9.32083 12.1999V2.96256L5.67917 1.7875V11.0251L9.32083 12.1999ZM10.6403 12.1999L13.3055 11.3626V1.99994L10.6403 2.96256V12.1999ZM1.69451 11.9875L4.35966 11.0251V1.7875L1.69451 2.62506V11.9875Z" fill="#333333"/>
</svg>
