<svg width="15" height="15" viewBox="0 0 15 15" fill="none" xmlns="http://www.w3.org/2000/svg">
<path d="M10.25 14.9737L4.77083 13.0396L1.04167 14.5162C0.805556 14.641 0.572917 14.634 0.34375 14.4954C0.114583 14.3568 0 14.1488 0 13.8715V2.26686C0 2.08662 0.0520833 1.92717 0.15625 1.78853C0.260417 1.64988 0.395833 1.5459 0.5625 1.47658L4.77083 0L10.25 1.91331L13.9583 0.436734C14.1944 0.325817 14.4271 0.336216 14.6562 0.467929C14.8854 0.599642 15 0.804145 15 1.08144V12.8317C15 12.9842 14.9479 13.1159 14.8438 13.2268C14.7396 13.3377 14.6111 13.4209 14.4583 13.4764L10.25 14.9737ZM9.54167 13.414V2.91156L5.45833 1.53897V12.0414L9.54167 13.414ZM10.7917 13.414L13.75 12.4365V1.78853L10.7917 2.91156V13.414ZM1.25 13.1644L4.20833 12.0414V1.53897L1.25 2.51642V13.1644Z" fill="#F1F1F3"/>
</svg>
