<svg width="16" height="21" viewBox="0 0 16 21" fill="none" xmlns="http://www.w3.org/2000/svg">
<path d="M13 14C13.8333 14 14.5416 14.2917 15.125 14.875C15.7083 15.4583 16 16.1667 16 17C16 17.8333 15.7083 18.5417 15.125 19.125C14.5416 19.7083 13.8333 20 13 20C12.3666 20 11.7958 19.8167 11.2875 19.45C10.7791 19.0833 10.4166 18.6 10.2 18H3.84998L2.84998 19.55C2.69998 19.7833 2.48748 19.9292 2.21248 19.9875C1.93748 20.0458 1.68331 20 1.44998 19.85C1.21664 19.7 1.07081 19.4875 1.01248 19.2125C0.954143 18.9375 0.999976 18.6833 1.14998 18.45L5.09998 12.4C3.89998 11.85 2.91664 11.0042 2.14998 9.8625C1.38331 8.72083 0.999976 7.43333 0.999976 6H15C15 7.43333 14.6166 8.72083 13.85 9.8625C13.0833 11.0042 12.1 11.85 10.9 12.4L11.475 13.3C11.125 13.4667 10.8375 13.6333 10.6125 13.8C10.3875 13.9667 10.1416 14.2 9.87498 14.5L8.87498 12.95C8.74164 12.9833 8.59998 13 8.44998 13H7.54998C7.39998 13 7.25831 12.9833 7.12498 12.95L5.14998 16H10.2C10.4166 15.4 10.7791 14.9167 11.2875 14.55C11.7958 14.1833 12.3666 14 13 14ZM13 18C13.2833 18 13.5208 17.9042 13.7125 17.7125C13.9041 17.5208 14 17.2833 14 17C14 16.7167 13.9041 16.4792 13.7125 16.2875C13.5208 16.0958 13.2833 16 13 16C12.7166 16 12.4791 16.0958 12.2875 16.2875C12.0958 16.4792 12 16.7167 12 17C12 17.2833 12.0958 17.5208 12.2875 17.7125C12.4791 17.9042 12.7166 18 13 18ZM7.99998 11C8.99998 11 9.91248 10.725 10.7375 10.175C11.5625 9.625 12.1833 8.9 12.6 8H3.39998C3.83331 8.9 4.45831 9.625 5.27498 10.175C6.09164 10.725 6.99998 11 7.99998 11ZM5.39998 5C5.48331 4.51667 5.47081 4.10833 5.36248 3.775C5.25414 3.44167 5.02498 3.05833 4.67498 2.625C4.34164 2.19167 4.12081 1.77917 4.01248 1.3875C3.90414 0.995833 3.89164 0.533333 3.97498 0H4.97498C4.89164 0.483333 4.90414 0.8875 5.01248 1.2125C5.12081 1.5375 5.34998 1.91667 5.69998 2.35C6.04998 2.78333 6.27498 3.19583 6.37498 3.5875C6.47498 3.97917 6.48331 4.45 6.39998 5H5.39998ZM7.89998 5C7.98331 4.51667 7.97498 4.10833 7.87498 3.775C7.77498 3.44167 7.54998 3.05833 7.19998 2.625C6.84998 2.20833 6.62081 1.80417 6.51248 1.4125C6.40414 1.02083 6.39164 0.55 6.47498 0H7.47498C7.39164 0.483333 7.40414 0.8875 7.51248 1.2125C7.62081 1.5375 7.84998 1.91667 8.19998 2.35C8.53331 2.76667 8.75414 3.17083 8.86248 3.5625C8.97081 3.95417 8.98331 4.43333 8.89998 5H7.89998ZM10.4 5C10.4833 4.51667 10.475 4.10833 10.375 3.775C10.275 3.44167 10.05 3.05833 9.69998 2.625C9.34998 2.20833 9.12081 1.80417 9.01248 1.4125C8.90414 1.02083 8.89164 0.55 8.97498 0H9.97498C9.89164 0.483333 9.90414 0.8875 10.0125 1.2125C10.1208 1.5375 10.35 1.91667 10.7 2.35C11.0333 2.76667 11.2541 3.17083 11.3625 3.5625C11.4708 3.95417 11.4833 4.43333 11.4 5H10.4Z" fill="#1270B0"/>
</svg>
