<svg width="25" height="24" viewBox="0 0 25 24" fill="none" xmlns="http://www.w3.org/2000/svg">
<mask id="mask0_1214_3325" style="mask-type:alpha" maskUnits="userSpaceOnUse" x="0" y="0" width="25" height="24">
<rect x="0.375" width="24" height="24" fill="#D9D9D9"/>
</mask>
<g mask="url(#mask0_1214_3325)">
<path d="M9.375 22V8.775C7.85833 8.375 6.64583 7.5375 5.7375 6.2625C4.82917 4.9875 4.375 3.56667 4.375 2H6.375C6.375 3.38333 6.82083 4.5625 7.7125 5.5375C8.60417 6.5125 9.74167 7 11.125 7H13.625C14.125 7 14.5917 7.09167 15.025 7.275C15.4583 7.45833 15.85 7.725 16.2 8.075L20.725 12.6L19.325 14L15.375 10.05V22H13.375V16H11.375V22H9.375ZM12.375 6C11.825 6 11.3542 5.80417 10.9625 5.4125C10.5708 5.02083 10.375 4.55 10.375 4C10.375 3.45 10.5708 2.97917 10.9625 2.5875C11.3542 2.19583 11.825 2 12.375 2C12.925 2 13.3958 2.19583 13.7875 2.5875C14.1792 2.97917 14.375 3.45 14.375 4C14.375 4.55 14.1792 5.02083 13.7875 5.4125C13.3958 5.80417 12.925 6 12.375 6Z" fill="#01255F"/>
</g>
</svg>
