<svg width="20" height="20" viewBox="0 0 20 20" fill="none" xmlns="http://www.w3.org/2000/svg">
<path d="M2.5 9.125C1.8 9.125 1.20833 8.88333 0.725 8.4C0.241667 7.91667 0 7.325 0 6.625C0 5.925 0.241667 5.33333 0.725 4.85C1.20833 4.36667 1.8 4.125 2.5 4.125C3.2 4.125 3.79167 4.36667 4.275 4.85C4.75833 5.33333 5 5.925 5 6.625C5 7.325 4.75833 7.91667 4.275 8.4C3.79167 8.88333 3.2 9.125 2.5 9.125ZM7 5.125C6.3 5.125 5.70833 4.88333 5.225 4.4C4.74167 3.91667 4.5 3.325 4.5 2.625C4.5 1.925 4.74167 1.33333 5.225 0.85C5.70833 0.366667 6.3 0.125 7 0.125C7.7 0.125 8.29167 0.366667 8.775 0.85C9.25833 1.33333 9.5 1.925 9.5 2.625C9.5 3.325 9.25833 3.91667 8.775 4.4C8.29167 4.88333 7.7 5.125 7 5.125ZM13 5.125C12.3 5.125 11.7083 4.88333 11.225 4.4C10.7417 3.91667 10.5 3.325 10.5 2.625C10.5 1.925 10.7417 1.33333 11.225 0.85C11.7083 0.366667 12.3 0.125 13 0.125C13.7 0.125 14.2917 0.366667 14.775 0.85C15.2583 1.33333 15.5 1.925 15.5 2.625C15.5 3.325 15.2583 3.91667 14.775 4.4C14.2917 4.88333 13.7 5.125 13 5.125ZM17.5 9.125C16.8 9.125 16.2083 8.88333 15.725 8.4C15.2417 7.91667 15 7.325 15 6.625C15 5.925 15.2417 5.33333 15.725 4.85C16.2083 4.36667 16.8 4.125 17.5 4.125C18.2 4.125 18.7917 4.36667 19.275 4.85C19.7583 5.33333 20 5.925 20 6.625C20 7.325 19.7583 7.91667 19.275 8.4C18.7917 8.88333 18.2 9.125 17.5 9.125ZM4.65 19.125C3.9 19.125 3.27083 18.8375 2.7625 18.2625C2.25417 17.6875 2 17.0083 2 16.225C2 15.3583 2.29583 14.6 2.8875 13.95C3.47917 13.3 4.06667 12.6583 4.65 12.025C5.13333 11.5083 5.55 10.9458 5.9 10.3375C6.25 9.72917 6.66667 9.15833 7.15 8.625C7.51667 8.19167 7.94167 7.83333 8.425 7.55C8.90833 7.26667 9.43333 7.125 10 7.125C10.5667 7.125 11.0917 7.25833 11.575 7.525C12.0583 7.79167 12.4833 8.14167 12.85 8.575C13.3167 9.10833 13.7292 9.68333 14.0875 10.3C14.4458 10.9167 14.8667 11.4917 15.35 12.025C15.9333 12.6583 16.5208 13.3 17.1125 13.95C17.7042 14.6 18 15.3583 18 16.225C18 17.0083 17.7458 17.6875 17.2375 18.2625C16.7292 18.8375 16.1 19.125 15.35 19.125C14.45 19.125 13.5583 19.05 12.675 18.9C11.7917 18.75 10.9 18.675 10 18.675C9.1 18.675 8.20833 18.75 7.325 18.9C6.44167 19.05 5.55 19.125 4.65 19.125Z" fill="#1270B0"/>
</svg>
