<svg width="20" height="17" viewBox="0 0 20 17" fill="none" xmlns="http://www.w3.org/2000/svg">
<path d="M0 16.3333V14.5555C0.633333 14.5555 1.10833 14.4074 1.425 14.1111C1.74167 13.8148 2.36667 13.6666 3.3 13.6666C4.23333 13.6666 4.875 13.8148 5.225 14.1111C5.575 14.4074 6.05 14.5555 6.65 14.5555C7.25 14.5555 7.725 14.4074 8.075 14.1111C8.425 13.8148 9.06667 13.6666 10 13.6666C10.9333 13.6666 11.575 13.8148 11.925 14.1111C12.275 14.4074 12.75 14.5555 13.35 14.5555C13.95 14.5555 14.425 14.4074 14.775 14.1111C15.125 13.8148 15.7667 13.6666 16.7 13.6666C17.6333 13.6666 18.2583 13.8148 18.575 14.1111C18.8917 14.4074 19.3667 14.5555 20 14.5555V16.3333C19.0167 16.3333 18.3708 16.1852 18.0625 15.8889C17.7542 15.5926 17.3 15.4444 16.7 15.4444C16.1 15.4444 15.625 15.5926 15.275 15.8889C14.925 16.1852 14.2833 16.3333 13.35 16.3333C12.4167 16.3333 11.775 16.1852 11.425 15.8889C11.075 15.5926 10.6 15.4444 10 15.4444C9.4 15.4444 8.925 15.5926 8.575 15.8889C8.225 16.1852 7.58333 16.3333 6.65 16.3333C5.71667 16.3333 5.075 16.1852 4.725 15.8889C4.375 15.5926 3.9 15.4444 3.3 15.4444C2.7 15.4444 2.24583 15.5926 1.9375 15.8889C1.62917 16.1852 0.983333 16.3333 0 16.3333ZM0 12.3333V10.5555C0.633333 10.5555 1.10833 10.4074 1.425 10.1111C1.74167 9.81479 2.36667 9.66665 3.3 9.66665C4.23333 9.66665 4.87917 9.81479 5.2375 10.1111C5.59583 10.4074 6.06667 10.5555 6.65 10.5555C7.25 10.5555 7.725 10.4074 8.075 10.1111C8.425 9.81479 9.06667 9.66665 10 9.66665C10.9333 9.66665 11.575 9.81479 11.925 10.1111C12.275 10.4074 12.75 10.5555 13.35 10.5555C13.95 10.5555 14.425 10.4074 14.775 10.1111C15.125 9.81479 15.7667 9.66665 16.7 9.66665C17.6333 9.66665 18.2583 9.81479 18.575 10.1111C18.8917 10.4074 19.3667 10.5555 20 10.5555V12.3333C19.0167 12.3333 18.3708 12.1852 18.0625 11.8889C17.7542 11.5926 17.3 11.4444 16.7 11.4444C16.1 11.4444 15.6375 11.5926 15.3125 11.8889C14.9875 12.1852 14.3333 12.3333 13.35 12.3333C12.4 12.3333 11.7542 12.1852 11.4125 11.8889C11.0708 11.5926 10.6 11.4444 10 11.4444C9.36667 11.4444 8.89583 11.5926 8.5875 11.8889C8.27917 12.1852 7.63333 12.3333 6.65 12.3333C5.66667 12.3333 5.0125 12.1852 4.6875 11.8889C4.3625 11.5926 3.9 11.4444 3.3 11.4444C2.7 11.4444 2.24583 11.5926 1.9375 11.8889C1.62917 12.1852 0.983333 12.3333 0 12.3333ZM4.9 7.79998L8.225 4.84442L7.225 3.95554C6.675 3.46665 6.09167 3.11109 5.475 2.88887C4.85833 2.66665 4.1 2.55554 3.2 2.55554V0.333313C4.45 0.333313 5.48333 0.455535 6.3 0.69998C7.11667 0.944424 7.91667 1.41479 8.7 2.11109L15.1 7.79998C14.8167 7.96294 14.5417 8.09257 14.275 8.18887C14.0083 8.28517 13.7 8.33331 13.35 8.33331C12.75 8.33331 12.275 8.18516 11.925 7.88887C11.575 7.59257 10.9333 7.44442 10 7.44442C9.06667 7.44442 8.425 7.59257 8.075 7.88887C7.725 8.18516 7.25 8.33331 6.65 8.33331C6.3 8.33331 5.99167 8.28517 5.725 8.18887C5.45833 8.09257 5.18333 7.96294 4.9 7.79998ZM14.7 0.333313C15.4 0.333313 15.9917 0.551832 16.475 0.988869C16.9583 1.42591 17.2 1.94813 17.2 2.55554C17.2 3.17776 16.9583 3.70368 16.475 4.13331C15.9917 4.56294 15.4 4.77776 14.7 4.77776C14 4.77776 13.4083 4.56294 12.925 4.13331C12.4417 3.70368 12.2 3.17776 12.2 2.55554C12.2 1.94813 12.4417 1.42591 12.925 0.988869C13.4083 0.551832 14 0.333313 14.7 0.333313Z" fill="#1270B0"/>
</svg>
