<svg width="24" height="24" viewBox="0 0 36 37" fill="none" xmlns="http://www.w3.org/2000/svg">
<path d="M33.8002 36.6165L20.6502 23.4665C19.6502 24.3331 18.4842 25.0081 17.1522 25.4915C15.8202 25.9748 14.4029 26.2165 12.9002 26.2165C9.29488 26.2165 6.24355 24.9665 3.74621 22.4665C1.24888 19.9665 0.000213623 16.9498 0.000213623 13.4165C0.000213623 9.88312 1.25021 6.86646 3.75021 4.36646C6.25021 1.86646 9.27521 0.616455 12.8252 0.616455C16.3752 0.616455 19.3919 1.86646 21.8752 4.36646C24.3585 6.86646 25.6002 9.88562 25.6002 13.424C25.6002 14.8523 25.3669 16.2331 24.9002 17.5665C24.4335 18.8998 23.7336 20.1498 22.8002 21.3165L36.0002 34.4165L33.8002 36.6165ZM12.8502 23.2165C15.5585 23.2165 17.8607 22.2581 19.7567 20.3415C21.6524 18.4248 22.6002 16.1165 22.6002 13.4165C22.6002 10.7165 21.6524 8.40812 19.7567 6.49146C17.8607 4.57479 15.5585 3.61646 12.8502 3.61646C10.1142 3.61646 7.78855 4.57479 5.87321 6.49146C3.95788 8.40812 3.00021 10.7165 3.00021 13.4165C3.00021 16.1165 3.95788 18.4248 5.87321 20.3415C7.78855 22.2581 10.1142 23.2165 12.8502 23.2165Z" fill="#3D3D43"/>
</svg>
