<svg width="28" height="28" viewBox="0 0 28 28" fill="none" xmlns="http://www.w3.org/2000/svg">
<path d="M25.8502 27.4624L15.9877 17.5999C15.2377 18.2499 14.3632 18.7562 13.3642 19.1187C12.3652 19.4812 11.3022 19.6624 10.1752 19.6624C7.47118 19.6624 5.18268 18.7249 3.30968 16.8499C1.43668 14.9749 0.500183 12.7124 0.500183 10.0624C0.500183 7.4124 1.43768 5.1499 3.31268 3.2749C5.18768 1.3999 7.45643 0.462402 10.1189 0.462402C12.7814 0.462402 15.0439 1.3999 16.9064 3.2749C18.7689 5.1499 19.7002 7.41428 19.7002 10.068C19.7002 11.1393 19.5252 12.1749 19.1752 13.1749C18.8252 14.1749 18.3002 15.1124 17.6002 15.9874L27.5002 25.8124L25.8502 27.4624ZM10.1377 17.4124C12.1689 17.4124 13.8956 16.6937 15.3176 15.2562C16.7393 13.8187 17.4502 12.0874 17.4502 10.0624C17.4502 8.0374 16.7393 6.30615 15.3176 4.86865C13.8956 3.43115 12.1689 2.7124 10.1377 2.7124C8.08568 2.7124 6.34143 3.43115 4.90493 4.86865C3.46843 6.30615 2.75018 8.0374 2.75018 10.0624C2.75018 12.0874 3.46843 13.8187 4.90493 15.2562C6.34143 16.6937 8.08568 17.4124 10.1377 17.4124Z" fill="#3D3D43"/>
</svg>
