<svg width="33" height="32" viewBox="0 0 33 32" fill="none" xmlns="http://www.w3.org/2000/svg">
<rect x="0.25" y="-0.25" width="31.5" height="31.5" rx="15.75" transform="matrix(1 0 0 -1 0.333252 31.5)" stroke="#A1A1AA" stroke-width="0.5"/>
<mask id="mask0_216_2229" style="mask-type:alpha" maskUnits="userSpaceOnUse" x="6" y="7" width="20" height="20">
<rect x="6.5" y="7.5" width="19" height="19" fill="#D9D9D9" stroke="#A1A1AA"/>
</mask>
<g mask="url(#mask0_216_2229)">
<path d="M20.813 20.9724C19.8536 21.9486 18.6395 23.1098 17.1706 24.4561C17.1706 24.4562 17.1706 24.4562 17.1706 24.4562L16.3333 25.2104L15.4961 24.4562C15.496 24.4562 15.496 24.4561 15.496 24.4561C14.0272 23.1098 12.8131 21.9486 11.8537 20.9724C10.8942 19.9962 10.1303 19.1241 9.56176 18.3559C8.99317 17.5875 8.59529 16.893 8.36722 16.272C8.13902 15.6508 8.025 15.0228 8.025 14.3881C8.025 13.1445 8.44277 12.1071 9.27807 11.2742C10.1134 10.4414 11.1452 10.025 12.375 10.025C13.1625 10.025 13.891 10.2111 14.5608 10.5834C15.2307 10.9557 15.8148 11.4937 16.3129 12.1981L16.3324 12.2256L16.3531 12.199C16.9348 11.4523 17.5504 10.9038 18.1994 10.5523C18.8485 10.2008 19.5458 10.025 20.2917 10.025C21.5215 10.025 22.5532 10.4414 23.3886 11.2742C24.2239 12.1071 24.6417 13.1445 24.6417 14.3881C24.6417 15.0228 24.5276 15.6508 24.2994 16.272C24.0714 16.893 23.6735 17.5875 23.1049 18.3559C22.5364 19.1241 21.7725 19.9962 20.813 20.9724ZM16.3164 23.6196L16.3333 23.6351L16.3502 23.6196C17.7565 22.33 18.9139 21.224 19.8224 20.3016C20.7309 19.3792 21.453 18.5708 21.9885 17.8765C22.5241 17.1822 22.9005 16.5622 23.117 16.0166C23.3333 15.4714 23.4417 14.9295 23.4417 14.391C23.4417 13.4682 23.1479 12.7085 22.5594 12.1141C21.9709 11.5196 21.2158 11.2228 20.2962 11.2228C19.5752 11.2228 18.9079 11.443 18.2948 11.8826C17.6855 12.3195 17.1932 12.9318 16.8175 13.7184H15.8284C15.4665 12.9456 14.9811 12.3368 14.372 11.8931C13.7589 11.4465 13.0916 11.2228 12.3704 11.2228C11.4509 11.2228 10.6958 11.5196 10.1072 12.1141C9.51874 12.7085 9.225 13.4695 9.225 14.3948C9.225 14.9345 9.33334 15.4796 9.54965 16.0298C9.76608 16.5804 10.1425 17.2064 10.678 17.9076C11.2137 18.6089 11.9402 19.4174 12.8573 20.3329C13.7743 21.2483 14.9274 22.3439 16.3164 23.6196Z" fill="#3D3D43" stroke="#A1A1AA" stroke-width="0.05"/>
</g>
</svg>
