<svg width="15" height="17" viewBox="0 0 15 17" fill="none" xmlns="http://www.w3.org/2000/svg">
<path d="M13.775 14.2658C13.775 14.5906 13.665 14.8639 13.4448 15.0842L13.775 14.2658ZM13.775 14.2658C13.775 13.9412 13.6647 13.6681 13.4439 13.4482M13.775 14.2658L13.4439 13.4482M13.4439 13.4482C13.2233 13.2284 12.9495 13.1186 12.6242 13.1186M13.4439 13.4482L12.6242 13.1186M12.6242 13.1186C12.299 13.1186 12.0254 13.2287 11.8052 13.4491L12.6242 13.1186ZM3.525 8.31791C3.525 8.64266 3.41496 8.91602 3.19477 9.13626L3.525 8.31791ZM3.525 8.31791C3.525 7.99326 3.41467 7.72017 3.19389 7.50034M3.525 8.31791L3.19389 7.50034M3.19389 7.50034C2.97327 7.28054 2.69945 7.17071 2.37417 7.17071M3.19389 7.50034L2.37417 7.17071M2.37417 7.17071C2.04899 7.17071 1.77544 7.28083 1.55524 7.50122L2.37417 7.17071ZM10.3787 13.5643L10.3821 13.5469L10.3668 13.538L4.13761 9.89851L4.12043 9.88847L4.10679 9.90297C3.88286 10.1411 3.6241 10.3275 3.3304 10.4624C3.03721 10.5971 2.71885 10.6646 2.375 10.6646C1.72182 10.6646 1.16743 10.4367 0.71037 9.98039C0.253312 9.52413 0.025 8.97074 0.025 8.31874C0.025 7.66674 0.253312 7.11335 0.71037 6.65709C1.16743 6.20083 1.72182 5.9729 2.375 5.9729C2.70501 5.9729 3.01405 6.03671 3.30239 6.16417L3.3024 6.16418C3.59116 6.2917 3.84546 6.46803 4.06545 6.69326L4.07898 6.70711L4.09577 6.69747L10.3666 3.09962L10.383 3.09021L10.3784 3.07186C10.3508 2.96154 10.3266 2.84773 10.3059 2.73043C10.2853 2.61408 10.275 2.49422 10.275 2.37084C10.275 1.71884 10.5033 1.16545 10.9604 0.709188C11.4174 0.252928 11.9718 0.025 12.625 0.025C13.2782 0.025 13.8326 0.252928 14.2896 0.709188C14.7467 1.16545 14.975 1.71884 14.975 2.37084C14.975 3.02284 14.7467 3.57623 14.2896 4.03249C13.8326 4.48875 13.2782 4.71668 12.625 4.71668C12.3051 4.71668 12.0055 4.65495 11.7259 4.53164C11.4457 4.40797 11.1956 4.24315 10.9754 4.03713L10.9621 4.02469L10.9462 4.03353L4.61287 7.54819L4.59401 7.55866L4.6016 7.57884C4.6426 7.688 4.67345 7.80765 4.69406 7.9379C4.71471 8.06849 4.725 8.19196 4.725 8.30834C4.725 8.42522 4.71811 8.53502 4.70439 8.63778C4.69063 8.74076 4.66999 8.84728 4.64242 8.95737L4.63781 8.97577L4.65429 8.98516L10.9668 12.583L10.9828 12.5921L10.9962 12.5795C11.2163 12.3736 11.4645 12.2123 11.7408 12.0956C12.0167 11.9791 12.3125 11.9208 12.6283 11.9208C13.2863 11.9208 13.8412 12.1488 14.2948 12.6049C14.7484 13.0612 14.975 13.6146 14.975 14.2666C14.975 14.9186 14.7467 15.472 14.2896 15.9283C13.8326 16.3846 13.2782 16.6125 12.625 16.6125C11.9718 16.6125 11.4174 16.3846 10.9604 15.9283C10.5033 15.472 10.275 14.9186 10.275 14.2666C10.275 14.1586 10.3092 13.9253 10.3787 13.5643ZM12.6258 15.4147C12.951 15.4147 13.2246 15.3045 13.4448 15.0842L11.8052 13.4491C11.585 13.6694 11.475 13.9427 11.475 14.2675C11.475 14.5921 11.5853 14.8652 11.8061 15.085C12.0267 15.3048 12.3005 15.4147 12.6258 15.4147ZM2.37583 9.46677C2.70101 9.46677 2.97456 9.35665 3.19476 9.13626L1.55523 7.50122C1.33504 7.72146 1.225 7.99481 1.225 8.31957C1.225 8.64422 1.33533 8.91731 1.55611 9.13713C1.77673 9.35694 2.05054 9.46677 2.37583 9.46677ZM12.6258 3.51887C12.951 3.51887 13.2246 3.40875 13.4448 3.18836L11.8052 1.55332C11.585 1.77356 11.475 2.04692 11.475 2.37167C11.475 2.69632 11.5853 2.96941 11.8061 3.18924C12.0267 3.40904 12.3005 3.51887 12.6258 3.51887ZM13.4448 3.18836C13.665 2.96812 13.775 2.69477 13.775 2.37001C13.775 2.04536 13.6647 1.77227 13.4439 1.55245C13.2233 1.33264 12.9495 1.22281 12.6242 1.22281C12.299 1.22281 12.0254 1.33293 11.8052 1.55332L13.4448 3.18836Z" fill="#3D3D43" stroke="#A1A1AA" stroke-width="0.05"/>
</svg>
