<svg width="20" height="20" viewBox="0 0 16 19" fill="none" xmlns="http://www.w3.org/2000/svg">
<path d="M2.72222 16.0278C2.5 16.0278 2.30556 15.9444 2.13889 15.7778C1.97222 15.6111 1.88889 15.4167 1.88889 15.1944C1.88889 14.9722 1.97222 14.7778 2.13889 14.6111C2.30556 14.4444 2.5 14.3611 2.72222 14.3611C2.94444 14.3611 3.13889 14.4444 3.30556 14.6111C3.47222 14.7778 3.55556 14.9722 3.55556 15.1944C3.55556 15.4167 3.47222 15.6111 3.30556 15.7778C3.13889 15.9444 2.94444 16.0278 2.72222 16.0278ZM7.77778 16.0278C7.55556 16.0278 7.36111 15.9444 7.19444 15.7778C7.02778 15.6111 6.94444 15.4167 6.94444 15.1944C6.94444 14.9722 7.02778 14.7778 7.19444 14.6111C7.36111 14.4444 7.55556 14.3611 7.77778 14.3611C8 14.3611 8.19444 14.4444 8.36111 14.6111C8.52778 14.7778 8.61111 14.9722 8.61111 15.1944C8.61111 15.4167 8.52778 15.6111 8.36111 15.7778C8.19444 15.9444 8 16.0278 7.77778 16.0278ZM12.8333 16.0278C12.6111 16.0278 12.4167 15.9444 12.25 15.7778C12.0833 15.6111 12 15.4167 12 15.1944C12 14.9722 12.0833 14.7778 12.25 14.6111C12.4167 14.4444 12.6111 14.3611 12.8333 14.3611C13.0556 14.3611 13.25 14.4444 13.4167 14.6111C13.5833 14.7778 13.6667 14.9722 13.6667 15.1944C13.6667 15.4167 13.5833 15.6111 13.4167 15.7778C13.25 15.9444 13.0556 16.0278 12.8333 16.0278ZM0 11.8611V10.1944C0 8.21296 0.671296 6.48148 2.01389 5C3.35648 3.51852 5 2.67593 6.94444 2.47222V0H8.61111V2.47222C10.5556 2.67593 12.1991 3.51852 13.5417 5C14.8843 6.48148 15.5556 8.21296 15.5556 10.1944V11.8611H0ZM1.66667 10.1944H13.8889C13.8889 8.50926 13.2936 7.06944 12.1031 5.875C10.9125 4.68056 9.47269 4.08333 7.78361 4.08333C6.09454 4.08333 4.65278 4.67917 3.45833 5.87083C2.26389 7.0625 1.66667 8.5037 1.66667 10.1944ZM2.72222 20C2.5 20 2.30556 19.9167 2.13889 19.75C1.97222 19.5833 1.88889 19.3889 1.88889 19.1667C1.88889 18.9444 1.97222 18.75 2.13889 18.5833C2.30556 18.4167 2.5 18.3333 2.72222 18.3333C2.94444 18.3333 3.13889 18.4167 3.30556 18.5833C3.47222 18.75 3.55556 18.9444 3.55556 19.1667C3.55556 19.3889 3.47222 19.5833 3.30556 19.75C3.13889 19.9167 2.94444 20 2.72222 20ZM7.77778 20C7.55556 20 7.36111 19.9167 7.19444 19.75C7.02778 19.5833 6.94444 19.3889 6.94444 19.1667C6.94444 18.9444 7.02778 18.75 7.19444 18.5833C7.36111 18.4167 7.55556 18.3333 7.77778 18.3333C8 18.3333 8.19444 18.4167 8.36111 18.5833C8.52778 18.75 8.61111 18.9444 8.61111 19.1667C8.61111 19.3889 8.52778 19.5833 8.36111 19.75C8.19444 19.9167 8 20 7.77778 20ZM12.8333 20C12.6111 20 12.4167 19.9167 12.25 19.75C12.0833 19.5833 12 19.3889 12 19.1667C12 18.9444 12.0833 18.75 12.25 18.5833C12.4167 18.4167 12.6111 18.3333 12.8333 18.3333C13.0556 18.3333 13.25 18.4167 13.4167 18.5833C13.5833 18.75 13.6667 18.9444 13.6667 19.1667C13.6667 19.3889 13.5833 19.5833 13.4167 19.75C13.25 19.9167 13.0556 20 12.8333 20Z" fill="#3B82F6"/>
</svg>
