<svg width="40" height="41" viewBox="0 0 40 41" fill="none" xmlns="http://www.w3.org/2000/svg">
<path d="M22.0833 18.2917V13.875H33.125V18.2917H22.0833ZM22.0833 9.45833V5.04167H39.75V9.45833H22.0833ZM11.0417 40.375C7.9868 40.375 5.38281 39.2984 3.22969 37.1453C1.07656 34.9922 0 32.3882 0 29.3333C0 27.5667 0.386458 25.9196 1.15938 24.3922C1.93229 22.8648 3.01806 21.5674 4.41667 20.5V7.25C4.41667 5.40972 5.06076 3.84549 6.34896 2.55729C7.63715 1.2691 9.20139 0.625 11.0417 0.625C12.8819 0.625 14.4462 1.2691 15.7344 2.55729C17.0226 3.84549 17.6667 5.40972 17.6667 7.25V20.5C19.0653 21.5674 20.151 22.8648 20.924 24.3922C21.6969 25.9196 22.0833 27.5667 22.0833 29.3333C22.0833 32.3882 21.0068 34.9922 18.8536 37.1453C16.7005 39.2984 14.0965 40.375 11.0417 40.375ZM4.41667 29.3333H17.6667C17.6667 28.266 17.4366 27.2722 16.9766 26.3521C16.5165 25.4319 15.8632 24.659 15.0167 24.0333L13.25 22.7083V7.25C13.25 6.62431 13.0384 6.09983 12.6151 5.67656C12.1918 5.2533 11.6674 5.04167 11.0417 5.04167C10.416 5.04167 9.89149 5.2533 9.46823 5.67656C9.04496 6.09983 8.83333 6.62431 8.83333 7.25V22.7083L7.06667 24.0333C6.22014 24.659 5.56684 25.4319 5.10677 26.3521C4.6467 27.2722 4.41667 28.266 4.41667 29.3333Z" fill="#1270B0"/>
</svg>
