<svg width="22" height="18" viewBox="0 0 22 18" fill="none" xmlns="http://www.w3.org/2000/svg">
<path d="M11 18C9.90001 18 8.95835 17.6083 8.17501 16.825C7.39168 16.0417 7.00001 15.1 7.00001 14C7.00001 12.9 7.39168 11.9583 8.17501 11.175C8.95835 10.3917 9.90001 10 11 10C12.1 10 13.0417 10.3917 13.825 11.175C14.6083 11.9583 15 12.9 15 14C15 15.1 14.6083 16.0417 13.825 16.825C13.0417 17.6083 12.1 18 11 18ZM11 16C11.55 16 12.0208 15.8042 12.4125 15.4125C12.8042 15.0208 13 14.55 13 14C13 13.45 12.8042 12.9792 12.4125 12.5875C12.0208 12.1958 11.55 12 11 12C10.45 12 9.97918 12.1958 9.58751 12.5875C9.19585 12.9792 9.00001 13.45 9.00001 14C9.00001 14.55 9.19585 15.0208 9.58751 15.4125C9.97918 15.8042 10.45 16 11 16ZM2.05001 5.6L0.575012 4.225C1.92501 2.90833 3.49168 1.875 5.27501 1.125C7.05835 0.375 8.96668 0 11 0C13.0333 0 14.9417 0.375 16.725 1.125C18.5083 1.875 20.075 2.90833 21.425 4.225L19.95 5.6C18.7667 4.48333 17.4167 3.60417 15.9 2.9625C14.3833 2.32083 12.75 2 11 2C9.25001 2 7.61668 2.32083 6.10001 2.9625C4.58335 3.60417 3.23335 4.48333 2.05001 5.6ZM16.3 9.025C15.6 8.39167 14.8 7.89583 13.9 7.5375C13 7.17917 12.0333 7 11 7C9.96668 7 9.00418 7.17917 8.11251 7.5375C7.22085 7.89583 6.41668 8.39167 5.70001 9.025L4.22501 7.65C5.12501 6.81667 6.15418 6.16667 7.31251 5.7C8.47085 5.23333 9.70001 5 11 5C12.3 5 13.525 5.23333 14.675 5.7C15.825 6.16667 16.85 6.81667 17.75 7.65L16.3 9.025Z" fill="#1270B0"/>
</svg>
