<svg width="20" height="20" viewBox="0 0 20 20" fill="none" xmlns="http://www.w3.org/2000/svg">
<g clip-path="url(#clip0_1448_5688)">
<path d="M20 10C20 12.6522 18.9464 15.1957 17.0711 17.0711C15.1957 18.9464 12.6522 20 10 20C7.34784 20 4.8043 18.9464 2.92893 17.0711C1.05357 15.1957 0 12.6522 0 10C0 7.34784 1.05357 4.8043 2.92893 2.92893C4.8043 1.05357 7.34784 0 10 0C12.6522 0 15.1957 1.05357 17.0711 2.92893C18.9464 4.8043 20 7.34784 20 10ZM6.6925 5.8075C6.57514 5.69014 6.41597 5.62421 6.25 5.62421C6.08403 5.62421 5.92486 5.69014 5.8075 5.8075C5.69014 5.92486 5.62421 6.08403 5.62421 6.25C5.62421 6.41597 5.69014 6.57514 5.8075 6.6925L9.11625 10L5.8075 13.3075C5.74939 13.3656 5.70329 13.4346 5.67185 13.5105C5.6404 13.5864 5.62421 13.6678 5.62421 13.75C5.62421 13.8322 5.6404 13.9136 5.67185 13.9895C5.70329 14.0654 5.74939 14.1344 5.8075 14.1925C5.92486 14.3099 6.08403 14.3758 6.25 14.3758C6.33218 14.3758 6.41356 14.3596 6.48948 14.3282C6.5654 14.2967 6.63439 14.2506 6.6925 14.1925L10 10.8837L13.3075 14.1925C13.3656 14.2506 13.4346 14.2967 13.5105 14.3282C13.5864 14.3596 13.6678 14.3758 13.75 14.3758C13.8322 14.3758 13.9136 14.3596 13.9895 14.3282C14.0654 14.2967 14.1344 14.2506 14.1925 14.1925C14.2506 14.1344 14.2967 14.0654 14.3282 13.9895C14.3596 13.9136 14.3758 13.8322 14.3758 13.75C14.3758 13.6678 14.3596 13.5864 14.3282 13.5105C14.2967 13.4346 14.2506 13.3656 14.1925 13.3075L10.8837 10L14.1925 6.6925C14.2506 6.63439 14.2967 6.5654 14.3282 6.48948C14.3596 6.41356 14.3758 6.33218 14.3758 6.25C14.3758 6.16782 14.3596 6.08644 14.3282 6.01052C14.2967 5.9346 14.2506 5.86561 14.1925 5.8075C14.1344 5.74939 14.0654 5.70329 13.9895 5.67185C13.9136 5.6404 13.8322 5.62421 13.75 5.62421C13.6678 5.62421 13.5864 5.6404 13.5105 5.67185C13.4346 5.70329 13.3656 5.74939 13.3075 5.8075L10 9.11625L6.6925 5.8075Z" fill="#E66A05"/>
</g>
<defs>
<clipPath id="clip0_1448_5688">
<rect width="20" height="20" fill="white"/>
</clipPath>
</defs>
</svg>
