<svg width="72" height="72" viewBox="0 0 72 72" fill="none" xmlns="http://www.w3.org/2000/svg">
<mask id="mask0_350_3003" style="mask-type:alpha" maskUnits="userSpaceOnUse" x="0" y="0" width="72" height="72">
<rect width="72" height="72" fill="#D9D9D9"/>
</mask>
<g mask="url(#mask0_350_3003)">
<path d="M16.65 52.875C19.8 50.675 22.925 48.9875 26.025 47.8125C29.125 46.6375 32.45 46.05 36 46.05C39.55 46.05 42.8875 46.6375 46.0125 47.8125C49.1375 48.9875 52.275 50.675 55.425 52.875C57.625 50.175 59.1875 47.45 60.1125 44.7C61.0375 41.95 61.5 39.05 61.5 36C61.5 28.75 59.0625 22.6875 54.1875 17.8125C49.3125 12.9375 43.25 10.5 36 10.5C28.75 10.5 22.6875 12.9375 17.8125 17.8125C12.9375 22.6875 10.5 28.75 10.5 36C10.5 39.05 10.975 41.95 11.925 44.7C12.875 47.45 14.45 50.175 16.65 52.875ZM35.9858 38.25C33.0953 38.25 30.6625 37.2577 28.6875 35.2732C26.7125 33.2892 25.725 30.8517 25.725 27.9607C25.725 25.0702 26.7173 22.6375 28.7018 20.6625C30.6858 18.6875 33.1233 17.7 36.0143 17.7C38.9048 17.7 41.3375 18.6922 43.3125 20.6767C45.2875 22.6607 46.275 25.0982 46.275 27.9892C46.275 30.8797 45.2828 33.3125 43.2983 35.2875C41.3143 37.2625 38.8768 38.25 35.9858 38.25ZM36.0353 66C31.9118 66 28.025 65.2125 24.375 63.6375C20.725 62.0625 17.5375 59.9125 14.8125 57.1875C12.0875 54.4625 9.93752 51.2807 8.36252 47.6422C6.78752 44.0042 6.00002 40.1167 6.00002 35.9797C6.00002 31.8433 6.78752 27.9625 8.36252 24.3375C9.93752 20.7125 12.0875 17.5375 14.8125 14.8125C17.5375 12.0875 20.7193 9.9375 24.3578 8.3625C27.9958 6.7875 31.8833 6 36.0203 6C40.1568 6 44.0375 6.7875 47.6625 8.3625C51.2875 9.9375 54.4625 12.0875 57.1875 14.8125C59.9125 17.5375 62.0625 20.7133 63.6375 24.3398C65.2125 27.9663 66 31.8412 66 35.9647C66 40.0882 65.2125 43.975 63.6375 47.625C62.0625 51.275 59.9125 54.4625 57.1875 57.1875C54.4625 59.9125 51.2868 62.0625 47.6603 63.6375C44.0338 65.2125 40.1588 66 36.0353 66ZM36 61.5C38.75 61.5 41.4375 61.1 44.0625 60.3C46.6875 59.5 49.275 58.1 51.825 56.1C49.275 54.3 46.675 52.925 44.025 51.975C41.375 51.025 38.7 50.55 36 50.55C33.3 50.55 30.625 51.025 27.975 51.975C25.325 52.925 22.725 54.3 20.175 56.1C22.725 58.1 25.3125 59.5 27.9375 60.3C30.5625 61.1 33.25 61.5 36 61.5ZM36 33.75C37.7 33.75 39.0875 33.2125 40.1625 32.1375C41.2375 31.0625 41.775 29.675 41.775 27.975C41.775 26.275 41.2375 24.8875 40.1625 23.8125C39.0875 22.7375 37.7 22.2 36 22.2C34.3 22.2 32.9125 22.7375 31.8375 23.8125C30.7625 24.8875 30.225 26.275 30.225 27.975C30.225 29.675 30.7625 31.0625 31.8375 32.1375C32.9125 33.2125 34.3 33.75 36 33.75Z" fill="#3D3D43"/>
</g>
</svg>
